<svg id="Layer_5" enable-background="new 0 0 64 64" height="512" viewBox="0 0 64 64" width="512" xmlns="http://www.w3.org/2000/svg" xmlns:xlink="http://www.w3.org/1999/xlink"><linearGradient id="SVGID_1_" gradientUnits="userSpaceOnUse" x1="32" x2="32" y1="63" y2="1"><stop offset="0" stop-color="#9f2fff"/><stop offset="1" stop-color="#0bb1d3"/></linearGradient><path d="m20 44.828c0-2.092-.814-4.058-2.293-5.535l-.707-.707-.707.707c-1.479 1.478-2.293 3.443-2.293 5.535v7.554c-.615.703-1 1.612-1 2.618 0 2.206 1.794 4 4 4s4-1.794 4-4c0-1.005-.385-1.914-1-2.618zm-3-3.267c.65.957 1 2.085 1 3.268v6.314c-.322-.085-.653-.143-1-.143s-.678.058-1 .142v-6.314c0-1.182.35-2.31 1-3.267zm0 15.439c-1.103 0-2-.897-2-2s.897-2 2-2 2 .897 2 2-.897 2-2 2zm44.415-12.288-4.415-1.655v-24.057h-8v23h-4v-12h-8v12h-4v-18h-8v9.165c-1.239-.719-2.581-1.271-4-1.638v-12.527h-8v12.527c-6.889 1.783-12 8.034-12 15.473 0 8.822 7.178 16 16 16 7.075 0 13.083-4.621 15.189-11h21.992l7.234-2.713c.948-.356 1.585-1.275 1.585-2.287s-.637-1.931-1.585-2.288zm-24.415-.712h16v2h-16zm0 4h16v2h-16zm14-27h4v21.307l-.819-.307h-3.181zm-12 11h4v10h-4zm-32.656 9.503-1.847-.765c.526-1.046 1.175-2.016 1.936-2.893l1.417 1.417c-.582.687-1.089 1.436-1.506 2.241zm-.764 1.849c-.271.847-.462 1.731-.538 2.648h-1.991c.084-1.186.312-2.33.674-3.417zm3.684-5.502-1.418-1.418c.876-.76 1.847-1.41 2.893-1.936l.763 1.842c-.806.417-1.552.93-2.238 1.512zm4.087-2.273-.767-1.852c1.086-.362 2.231-.59 3.416-.674v1.997c-.917.076-1.802.258-2.649.529zm4.649-2.526c1.185.084 2.33.312 3.416.674l-.767 1.852c-.847-.271-1.732-.453-2.649-.529zm5.262 1.445c1.046.526 2.016 1.175 2.893 1.936l-1.418 1.418c-.687-.581-1.432-1.095-2.238-1.512zm4.306 3.35c.76.876 1.41 1.847 1.936 2.893l-1.847.765c-.417-.805-.924-1.554-1.505-2.24zm2.707 4.737c.362 1.086.59 2.231.674 3.417h-1.991c-.076-.917-.267-1.801-.539-2.648zm-3.275-16.583h4v13.271c-1.015-1.831-2.379-3.439-4-4.741zm-12-5h4v10.139c-.657-.083-1.321-.139-2-.139s-1.343.056-2 .139zm2 40c-7.382 0-13.433-5.747-13.949-13h3.949v-1c0-5.514 4.486-10 10-10s10 4.486 10 10v1h3.949c-.516 7.253-6.567 13-13.949 13zm15.708-17h2.292v6h-2.292c.186-.973.292-1.974.292-3s-.106-2.027-.292-3zm28.004 3.415-5.712 2.142v-5.114l5.711 2.141c.173.065.289.232.289.416s-.116.351-.288.415zm-7.712-34.415c2.206 0 4-1.794 4-4s-1.794-4-4-4-4 1.794-4 4 1.794 4 4 4zm0-6c1.103 0 2 .897 2 2s-.897 2-2 2-2-.897-2-2 .897-2 2-2zm-47 7c-2.757 0-5 2.243-5 5s2.243 5 5 5 5-2.243 5-5c0-.628-.129-1.224-.342-1.779l2.754-1.753c.91.941 2.179 1.532 3.588 1.532 1.846 0 3.444-1.017 4.31-2.51l1.768.59c-.047.301-.078.606-.078.92 0 3.309 2.691 6 6 6 1.718 0 3.266-.73 4.361-1.891l3.877 2.585c-.144.411-.238.846-.238 1.306 0 2.206 1.794 4 4 4s4-1.794 4-4c0-.898-.308-1.719-.809-2.387l4.639-5.799c1.216.747 2.641 1.186 4.17 1.186 4.411 0 8-3.589 8-8s-3.589-8-8-8-8 3.589-8 8c0 2.163.866 4.125 2.266 5.567l-4.632 5.791c-.5-.226-1.051-.358-1.634-.358-1.022 0-1.945.397-2.653 1.029l-3.874-2.583c.336-.748.527-1.574.527-2.446 0-3.309-2.691-6-6-6-2.29 0-4.283 1.291-5.294 3.182l-1.766-.589c.024-.197.06-.39.06-.593 0-2.757-2.243-5-5-5s-5 2.243-5 5c0 .629.129 1.224.342 1.779l-2.754 1.753c-.91-.941-2.179-1.532-3.588-1.532zm47-11c3.309 0 6 2.691 6 6s-2.691 6-6 6-6-2.691-6-6 2.691-6 6-6zm-12 19c1.103 0 2 .897 2 2s-.897 2-2 2-2-.897-2-2 .897-2 2-2zm-12-10c2.206 0 4 1.794 4 4s-1.794 4-4 4-4-1.794-4-4 1.794-4 4-4zm-12-3c1.654 0 3 1.346 3 3s-1.346 3-3 3-3-1.346-3-3 1.346-3 3-3zm-11 13c-1.654 0-3-1.346-3-3s1.346-3 3-3 3 1.346 3 3-1.346 3-3 3z" fill="url(#SVGID_1_)"/></svg>